<?xml version="1.0" encoding="UTF-8"?>
<svg xmlns="http://www.w3.org/2000/svg" xmlns:xlink="http://www.w3.org/1999/xlink" width="146pt" height="147pt" viewBox="0 0 146 147" version="1.1">
<g id="surface1">
<path style="fill:none;stroke-width:18;stroke-linecap:butt;stroke-linejoin:miter;stroke:rgb(0%,0%,0%);stroke-opacity:1;stroke-miterlimit:10;" d="M 740.013125 1460.004062 L 740.013125 20.004062 " transform="matrix(0.1,0,0,-0.1,-1.056,147.184)"/>
<path style="fill:none;stroke-width:18;stroke-linecap:butt;stroke-linejoin:miter;stroke:rgb(0%,0%,0%);stroke-opacity:1;stroke-miterlimit:10;" d="M 20.013125 740.004062 L 1460.013125 740.004062 " transform="matrix(0.1,0,0,-0.1,-1.056,147.184)"/>
<path style="fill:none;stroke-width:18;stroke-linecap:butt;stroke-linejoin:miter;stroke:rgb(0%,0%,0%);stroke-opacity:1;stroke-miterlimit:10;" d="M 380.013125 1460.004062 L 380.013125 740.004062 " transform="matrix(0.1,0,0,-0.1,-1.056,147.184)"/>
<path style="fill:none;stroke-width:18;stroke-linecap:butt;stroke-linejoin:miter;stroke:rgb(0%,0%,0%);stroke-opacity:1;stroke-miterlimit:10;" d="M 20.013125 1100.004062 L 740.013125 1100.004062 " transform="matrix(0.1,0,0,-0.1,-1.056,147.184)"/>
<path style="fill:none;stroke-width:18;stroke-linecap:butt;stroke-linejoin:miter;stroke:rgb(0%,0%,0%);stroke-opacity:1;stroke-miterlimit:10;" d="M 200.013125 1460.004062 L 200.013125 1100.004062 " transform="matrix(0.1,0,0,-0.1,-1.056,147.184)"/>
<path style="fill:none;stroke-width:18;stroke-linecap:butt;stroke-linejoin:miter;stroke:rgb(0%,0%,0%);stroke-opacity:1;stroke-miterlimit:10;" d="M 20.013125 1280.004062 L 380.013125 1280.004062 " transform="matrix(0.1,0,0,-0.1,-1.056,147.184)"/>
<path style="fill:none;stroke-width:18;stroke-linecap:butt;stroke-linejoin:miter;stroke:rgb(0%,0%,0%);stroke-opacity:1;stroke-miterlimit:10;" d="M 20.013125 20.004062 L 1460.013125 20.004062 L 1460.013125 1460.004062 L 20.013125 1460.004062 Z M 20.013125 20.004062 " transform="matrix(0.1,0,0,-0.1,-1.056,147.184)"/>
<path style="fill:none;stroke-width:4.5;stroke-linecap:butt;stroke-linejoin:miter;stroke:rgb(100%,0%,0%);stroke-opacity:1;stroke-miterlimit:10;" d="M 110.013125 1460.004062 L 110.013125 20.004062 " transform="matrix(0.1,0,0,-0.1,-1.056,147.184)"/>
<path style="fill:none;stroke-width:4.5;stroke-linecap:butt;stroke-linejoin:miter;stroke:rgb(100%,0%,0%);stroke-opacity:1;stroke-miterlimit:10;" d="M 200.013125 1460.004062 L 200.013125 20.004062 " transform="matrix(0.1,0,0,-0.1,-1.056,147.184)"/>
<path style="fill:none;stroke-width:4.5;stroke-linecap:butt;stroke-linejoin:miter;stroke:rgb(100%,0%,0%);stroke-opacity:1;stroke-miterlimit:10;" d="M 290.013125 1460.004062 L 290.013125 20.004062 " transform="matrix(0.1,0,0,-0.1,-1.056,147.184)"/>
<path style="fill:none;stroke-width:4.5;stroke-linecap:butt;stroke-linejoin:miter;stroke:rgb(100%,0%,0%);stroke-opacity:1;stroke-miterlimit:10;" d="M 380.013125 1460.004062 L 380.013125 20.004062 " transform="matrix(0.1,0,0,-0.1,-1.056,147.184)"/>
<path style="fill:none;stroke-width:4.5;stroke-linecap:butt;stroke-linejoin:miter;stroke:rgb(100%,0%,0%);stroke-opacity:1;stroke-miterlimit:10;" d="M 470.013125 1460.004062 L 470.013125 20.004062 " transform="matrix(0.1,0,0,-0.1,-1.056,147.184)"/>
<path style="fill:none;stroke-width:4.5;stroke-linecap:butt;stroke-linejoin:miter;stroke:rgb(100%,0%,0%);stroke-opacity:1;stroke-miterlimit:10;" d="M 560.013125 1460.004062 L 560.013125 20.004062 " transform="matrix(0.1,0,0,-0.1,-1.056,147.184)"/>
<path style="fill:none;stroke-width:4.5;stroke-linecap:butt;stroke-linejoin:miter;stroke:rgb(100%,0%,0%);stroke-opacity:1;stroke-miterlimit:10;" d="M 650.013125 1460.004062 L 650.013125 20.004062 " transform="matrix(0.1,0,0,-0.1,-1.056,147.184)"/>
<path style="fill:none;stroke-width:4.5;stroke-linecap:butt;stroke-linejoin:miter;stroke:rgb(100%,0%,0%);stroke-opacity:1;stroke-miterlimit:10;" d="M 830.013125 1460.004062 L 830.013125 20.004062 " transform="matrix(0.1,0,0,-0.1,-1.056,147.184)"/>
<path style="fill:none;stroke-width:4.5;stroke-linecap:butt;stroke-linejoin:miter;stroke:rgb(100%,0%,0%);stroke-opacity:1;stroke-miterlimit:10;" d="M 920.013125 1460.004062 L 920.013125 20.004062 " transform="matrix(0.1,0,0,-0.1,-1.056,147.184)"/>
<path style="fill:none;stroke-width:4.5;stroke-linecap:butt;stroke-linejoin:miter;stroke:rgb(100%,0%,0%);stroke-opacity:1;stroke-miterlimit:10;" d="M 1010.013125 1460.004062 L 1010.013125 20.004062 " transform="matrix(0.1,0,0,-0.1,-1.056,147.184)"/>
<path style="fill:none;stroke-width:4.5;stroke-linecap:butt;stroke-linejoin:miter;stroke:rgb(100%,0%,0%);stroke-opacity:1;stroke-miterlimit:10;" d="M 1100.013125 1460.004062 L 1100.013125 20.004062 " transform="matrix(0.1,0,0,-0.1,-1.056,147.184)"/>
<path style="fill:none;stroke-width:4.5;stroke-linecap:butt;stroke-linejoin:miter;stroke:rgb(100%,0%,0%);stroke-opacity:1;stroke-miterlimit:10;" d="M 1190.013125 1460.004062 L 1190.013125 20.004062 " transform="matrix(0.1,0,0,-0.1,-1.056,147.184)"/>
<path style="fill:none;stroke-width:4.5;stroke-linecap:butt;stroke-linejoin:miter;stroke:rgb(100%,0%,0%);stroke-opacity:1;stroke-miterlimit:10;" d="M 1280.013125 1460.004062 L 1280.013125 20.004062 " transform="matrix(0.1,0,0,-0.1,-1.056,147.184)"/>
<path style="fill:none;stroke-width:4.5;stroke-linecap:butt;stroke-linejoin:miter;stroke:rgb(100%,0%,0%);stroke-opacity:1;stroke-miterlimit:10;" d="M 1370.013125 1460.004062 L 1370.013125 20.004062 " transform="matrix(0.1,0,0,-0.1,-1.056,147.184)"/>
<path style="fill:none;stroke-width:4.5;stroke-linecap:butt;stroke-linejoin:miter;stroke:rgb(100%,0%,0%);stroke-opacity:1;stroke-miterlimit:10;" d="M 20.013125 110.004062 L 1460.013125 110.004062 " transform="matrix(0.1,0,0,-0.1,-1.056,147.184)"/>
<path style="fill:none;stroke-width:4.5;stroke-linecap:butt;stroke-linejoin:miter;stroke:rgb(100%,0%,0%);stroke-opacity:1;stroke-miterlimit:10;" d="M 20.013125 200.004062 L 1460.013125 200.004062 " transform="matrix(0.1,0,0,-0.1,-1.056,147.184)"/>
<path style="fill:none;stroke-width:4.5;stroke-linecap:butt;stroke-linejoin:miter;stroke:rgb(100%,0%,0%);stroke-opacity:1;stroke-miterlimit:10;" d="M 20.013125 290.004062 L 1460.013125 290.004062 " transform="matrix(0.1,0,0,-0.1,-1.056,147.184)"/>
<path style="fill:none;stroke-width:4.5;stroke-linecap:butt;stroke-linejoin:miter;stroke:rgb(100%,0%,0%);stroke-opacity:1;stroke-miterlimit:10;" d="M 20.013125 380.004062 L 1460.013125 380.004062 " transform="matrix(0.1,0,0,-0.1,-1.056,147.184)"/>
<path style="fill:none;stroke-width:4.5;stroke-linecap:butt;stroke-linejoin:miter;stroke:rgb(100%,0%,0%);stroke-opacity:1;stroke-miterlimit:10;" d="M 20.013125 470.004062 L 1460.013125 470.004062 " transform="matrix(0.1,0,0,-0.1,-1.056,147.184)"/>
<path style="fill:none;stroke-width:4.5;stroke-linecap:butt;stroke-linejoin:miter;stroke:rgb(100%,0%,0%);stroke-opacity:1;stroke-miterlimit:10;" d="M 20.013125 560.004062 L 1460.013125 560.004062 " transform="matrix(0.1,0,0,-0.1,-1.056,147.184)"/>
<path style="fill:none;stroke-width:4.5;stroke-linecap:butt;stroke-linejoin:miter;stroke:rgb(100%,0%,0%);stroke-opacity:1;stroke-miterlimit:10;" d="M 20.013125 650.004062 L 1460.013125 650.004062 " transform="matrix(0.1,0,0,-0.1,-1.056,147.184)"/>
<path style="fill:none;stroke-width:4.5;stroke-linecap:butt;stroke-linejoin:miter;stroke:rgb(100%,0%,0%);stroke-opacity:1;stroke-miterlimit:10;" d="M 20.013125 830.004062 L 1460.013125 830.004062 " transform="matrix(0.1,0,0,-0.1,-1.056,147.184)"/>
<path style="fill:none;stroke-width:4.5;stroke-linecap:butt;stroke-linejoin:miter;stroke:rgb(100%,0%,0%);stroke-opacity:1;stroke-miterlimit:10;" d="M 20.013125 920.004062 L 1460.013125 920.004062 " transform="matrix(0.1,0,0,-0.1,-1.056,147.184)"/>
<path style="fill:none;stroke-width:4.5;stroke-linecap:butt;stroke-linejoin:miter;stroke:rgb(100%,0%,0%);stroke-opacity:1;stroke-miterlimit:10;" d="M 20.013125 1010.004062 L 1460.013125 1010.004062 " transform="matrix(0.1,0,0,-0.1,-1.056,147.184)"/>
<path style="fill:none;stroke-width:4.5;stroke-linecap:butt;stroke-linejoin:miter;stroke:rgb(100%,0%,0%);stroke-opacity:1;stroke-miterlimit:10;" d="M 20.013125 1100.004062 L 1460.013125 1100.004062 " transform="matrix(0.1,0,0,-0.1,-1.056,147.184)"/>
<path style="fill:none;stroke-width:4.5;stroke-linecap:butt;stroke-linejoin:miter;stroke:rgb(100%,0%,0%);stroke-opacity:1;stroke-miterlimit:10;" d="M 20.013125 1190.004062 L 1460.013125 1190.004062 " transform="matrix(0.1,0,0,-0.1,-1.056,147.184)"/>
<path style="fill:none;stroke-width:4.5;stroke-linecap:butt;stroke-linejoin:miter;stroke:rgb(100%,0%,0%);stroke-opacity:1;stroke-miterlimit:10;" d="M 20.013125 1280.004062 L 1460.013125 1280.004062 " transform="matrix(0.1,0,0,-0.1,-1.056,147.184)"/>
<path style="fill:none;stroke-width:4.5;stroke-linecap:butt;stroke-linejoin:miter;stroke:rgb(100%,0%,0%);stroke-opacity:1;stroke-miterlimit:10;" d="M 20.013125 1370.004062 L 1460.013125 1370.004062 " transform="matrix(0.1,0,0,-0.1,-1.056,147.184)"/>
<path style="fill:none;stroke-width:4.5;stroke-linecap:butt;stroke-linejoin:miter;stroke:rgb(100%,0%,0%);stroke-opacity:1;stroke-miterlimit:10;" d="M 20.013125 20.004062 L 1460.013125 20.004062 L 1460.013125 1460.004062 L 20.013125 1460.004062 Z M 20.013125 20.004062 " transform="matrix(0.1,0,0,-0.1,-1.056,147.184)"/>
<path style="fill:none;stroke-width:4.5;stroke-linecap:butt;stroke-linejoin:miter;stroke:rgb(100%,0%,0%);stroke-opacity:1;stroke-miterlimit:10;" d="M 20.013125 740.004062 L 1460.013125 740.004062 " transform="matrix(0.1,0,0,-0.1,-1.056,147.184)"/>
<path style="fill:none;stroke-width:4.5;stroke-linecap:butt;stroke-linejoin:miter;stroke:rgb(100%,0%,0%);stroke-opacity:1;stroke-miterlimit:10;" d="M 740.013125 1460.004062 L 740.013125 20.004062 " transform="matrix(0.1,0,0,-0.1,-1.056,147.184)"/>
</g>
</svg>
