<?xml version="1.0" encoding="UTF-8"?>
<svg xmlns="http://www.w3.org/2000/svg" xmlns:xlink="http://www.w3.org/1999/xlink" width="341pt" height="341pt" viewBox="0 0 341 341" version="1.1">
<g id="surface1">
<path style="fill:none;stroke-width:41.8181;stroke-linecap:butt;stroke-linejoin:miter;stroke:rgb(0%,0%,0%);stroke-opacity:1;stroke-miterlimit:10;" d="M 1705.976562 3375.898438 L 1705.976562 30.46875 " transform="matrix(0.1,0,0,-0.1,0,341)"/>
<path style="fill:none;stroke-width:41.8181;stroke-linecap:butt;stroke-linejoin:miter;stroke:rgb(0%,0%,0%);stroke-opacity:1;stroke-miterlimit:10;" d="M 33.28125 1703.203125 L 3378.710938 1703.203125 " transform="matrix(0.1,0,0,-0.1,0,341)"/>
<path style="fill:none;stroke-width:41.8181;stroke-linecap:butt;stroke-linejoin:miter;stroke:rgb(0%,0%,0%);stroke-opacity:1;stroke-miterlimit:10;" d="M 869.648438 3375.898438 L 869.648438 1703.203125 " transform="matrix(0.1,0,0,-0.1,0,341)"/>
<path style="fill:none;stroke-width:41.8181;stroke-linecap:butt;stroke-linejoin:miter;stroke:rgb(0%,0%,0%);stroke-opacity:1;stroke-miterlimit:10;" d="M 33.28125 2539.53125 L 1705.976562 2539.53125 " transform="matrix(0.1,0,0,-0.1,0,341)"/>
<path style="fill:none;stroke-width:41.8181;stroke-linecap:butt;stroke-linejoin:miter;stroke:rgb(0%,0%,0%);stroke-opacity:1;stroke-miterlimit:10;" d="M 451.445312 3375.898438 L 451.445312 2539.53125 " transform="matrix(0.1,0,0,-0.1,0,341)"/>
<path style="fill:none;stroke-width:41.8181;stroke-linecap:butt;stroke-linejoin:miter;stroke:rgb(0%,0%,0%);stroke-opacity:1;stroke-miterlimit:10;" d="M 33.28125 2957.734375 L 869.648438 2957.734375 " transform="matrix(0.1,0,0,-0.1,0,341)"/>
<path style="fill:none;stroke-width:41.8181;stroke-linecap:butt;stroke-linejoin:miter;stroke:rgb(0%,0%,0%);stroke-opacity:1;stroke-miterlimit:10;" d="M 33.28125 30.46875 L 3378.710938 30.46875 L 3378.710938 3375.898438 L 33.28125 3375.898438 Z M 33.28125 30.46875 " transform="matrix(0.1,0,0,-0.1,0,341)"/>
<path style="fill:none;stroke-width:10.4545;stroke-linecap:butt;stroke-linejoin:miter;stroke:rgb(100%,0%,0%);stroke-opacity:1;stroke-miterlimit:10;" d="M 242.34375 3375.898438 L 242.34375 30.46875 " transform="matrix(0.1,0,0,-0.1,0,341)"/>
<path style="fill:none;stroke-width:10.4545;stroke-linecap:butt;stroke-linejoin:miter;stroke:rgb(100%,0%,0%);stroke-opacity:1;stroke-miterlimit:10;" d="M 451.445312 3375.898438 L 451.445312 30.46875 " transform="matrix(0.1,0,0,-0.1,0,341)"/>
<path style="fill:none;stroke-width:10.4545;stroke-linecap:butt;stroke-linejoin:miter;stroke:rgb(100%,0%,0%);stroke-opacity:1;stroke-miterlimit:10;" d="M 660.546875 3375.898438 L 660.546875 30.46875 " transform="matrix(0.1,0,0,-0.1,0,341)"/>
<path style="fill:none;stroke-width:10.4545;stroke-linecap:butt;stroke-linejoin:miter;stroke:rgb(100%,0%,0%);stroke-opacity:1;stroke-miterlimit:10;" d="M 869.648438 3375.898438 L 869.648438 30.46875 " transform="matrix(0.1,0,0,-0.1,0,341)"/>
<path style="fill:none;stroke-width:10.4545;stroke-linecap:butt;stroke-linejoin:miter;stroke:rgb(100%,0%,0%);stroke-opacity:1;stroke-miterlimit:10;" d="M 1078.710938 3375.898438 L 1078.710938 30.46875 " transform="matrix(0.1,0,0,-0.1,0,341)"/>
<path style="fill:none;stroke-width:10.4545;stroke-linecap:butt;stroke-linejoin:miter;stroke:rgb(100%,0%,0%);stroke-opacity:1;stroke-miterlimit:10;" d="M 1287.8125 3375.898438 L 1287.8125 30.46875 " transform="matrix(0.1,0,0,-0.1,0,341)"/>
<path style="fill:none;stroke-width:10.4545;stroke-linecap:butt;stroke-linejoin:miter;stroke:rgb(100%,0%,0%);stroke-opacity:1;stroke-miterlimit:10;" d="M 1496.914062 3375.898438 L 1496.914062 30.46875 " transform="matrix(0.1,0,0,-0.1,0,341)"/>
<path style="fill:none;stroke-width:10.4545;stroke-linecap:butt;stroke-linejoin:miter;stroke:rgb(100%,0%,0%);stroke-opacity:1;stroke-miterlimit:10;" d="M 1915.078125 3375.898438 L 1915.078125 30.46875 " transform="matrix(0.1,0,0,-0.1,0,341)"/>
<path style="fill:none;stroke-width:10.4545;stroke-linecap:butt;stroke-linejoin:miter;stroke:rgb(100%,0%,0%);stroke-opacity:1;stroke-miterlimit:10;" d="M 2124.179688 3375.898438 L 2124.179688 30.46875 " transform="matrix(0.1,0,0,-0.1,0,341)"/>
<path style="fill:none;stroke-width:10.4545;stroke-linecap:butt;stroke-linejoin:miter;stroke:rgb(100%,0%,0%);stroke-opacity:1;stroke-miterlimit:10;" d="M 2333.242188 3375.898438 L 2333.242188 30.46875 " transform="matrix(0.1,0,0,-0.1,0,341)"/>
<path style="fill:none;stroke-width:10.4545;stroke-linecap:butt;stroke-linejoin:miter;stroke:rgb(100%,0%,0%);stroke-opacity:1;stroke-miterlimit:10;" d="M 2542.34375 3375.898438 L 2542.34375 30.46875 " transform="matrix(0.1,0,0,-0.1,0,341)"/>
<path style="fill:none;stroke-width:10.4545;stroke-linecap:butt;stroke-linejoin:miter;stroke:rgb(100%,0%,0%);stroke-opacity:1;stroke-miterlimit:10;" d="M 2751.445312 3375.898438 L 2751.445312 30.46875 " transform="matrix(0.1,0,0,-0.1,0,341)"/>
<path style="fill:none;stroke-width:10.4545;stroke-linecap:butt;stroke-linejoin:miter;stroke:rgb(100%,0%,0%);stroke-opacity:1;stroke-miterlimit:10;" d="M 2960.546875 3375.898438 L 2960.546875 30.46875 " transform="matrix(0.1,0,0,-0.1,0,341)"/>
<path style="fill:none;stroke-width:10.4545;stroke-linecap:butt;stroke-linejoin:miter;stroke:rgb(100%,0%,0%);stroke-opacity:1;stroke-miterlimit:10;" d="M 3169.648438 3375.898438 L 3169.648438 30.46875 " transform="matrix(0.1,0,0,-0.1,0,341)"/>
<path style="fill:none;stroke-width:10.4545;stroke-linecap:butt;stroke-linejoin:miter;stroke:rgb(100%,0%,0%);stroke-opacity:1;stroke-miterlimit:10;" d="M 33.28125 239.570312 L 3378.710938 239.570312 " transform="matrix(0.1,0,0,-0.1,0,341)"/>
<path style="fill:none;stroke-width:10.4545;stroke-linecap:butt;stroke-linejoin:miter;stroke:rgb(100%,0%,0%);stroke-opacity:1;stroke-miterlimit:10;" d="M 33.28125 448.632812 L 3378.710938 448.632812 " transform="matrix(0.1,0,0,-0.1,0,341)"/>
<path style="fill:none;stroke-width:10.4545;stroke-linecap:butt;stroke-linejoin:miter;stroke:rgb(100%,0%,0%);stroke-opacity:1;stroke-miterlimit:10;" d="M 33.28125 657.734375 L 3378.710938 657.734375 " transform="matrix(0.1,0,0,-0.1,0,341)"/>
<path style="fill:none;stroke-width:10.4545;stroke-linecap:butt;stroke-linejoin:miter;stroke:rgb(100%,0%,0%);stroke-opacity:1;stroke-miterlimit:10;" d="M 33.28125 866.835938 L 3378.710938 866.835938 " transform="matrix(0.1,0,0,-0.1,0,341)"/>
<path style="fill:none;stroke-width:10.4545;stroke-linecap:butt;stroke-linejoin:miter;stroke:rgb(100%,0%,0%);stroke-opacity:1;stroke-miterlimit:10;" d="M 33.28125 1075.9375 L 3378.710938 1075.9375 " transform="matrix(0.1,0,0,-0.1,0,341)"/>
<path style="fill:none;stroke-width:10.4545;stroke-linecap:butt;stroke-linejoin:miter;stroke:rgb(100%,0%,0%);stroke-opacity:1;stroke-miterlimit:10;" d="M 33.28125 1285 L 3378.710938 1285 " transform="matrix(0.1,0,0,-0.1,0,341)"/>
<path style="fill:none;stroke-width:10.4545;stroke-linecap:butt;stroke-linejoin:miter;stroke:rgb(100%,0%,0%);stroke-opacity:1;stroke-miterlimit:10;" d="M 33.28125 1494.101562 L 3378.710938 1494.101562 " transform="matrix(0.1,0,0,-0.1,0,341)"/>
<path style="fill:none;stroke-width:10.4545;stroke-linecap:butt;stroke-linejoin:miter;stroke:rgb(100%,0%,0%);stroke-opacity:1;stroke-miterlimit:10;" d="M 33.28125 1912.265625 L 3378.710938 1912.265625 " transform="matrix(0.1,0,0,-0.1,0,341)"/>
<path style="fill:none;stroke-width:10.4545;stroke-linecap:butt;stroke-linejoin:miter;stroke:rgb(100%,0%,0%);stroke-opacity:1;stroke-miterlimit:10;" d="M 33.28125 2121.367188 L 3378.710938 2121.367188 " transform="matrix(0.1,0,0,-0.1,0,341)"/>
<path style="fill:none;stroke-width:10.4545;stroke-linecap:butt;stroke-linejoin:miter;stroke:rgb(100%,0%,0%);stroke-opacity:1;stroke-miterlimit:10;" d="M 33.28125 2330.46875 L 3378.710938 2330.46875 " transform="matrix(0.1,0,0,-0.1,0,341)"/>
<path style="fill:none;stroke-width:10.4545;stroke-linecap:butt;stroke-linejoin:miter;stroke:rgb(100%,0%,0%);stroke-opacity:1;stroke-miterlimit:10;" d="M 33.28125 2539.53125 L 3378.710938 2539.53125 " transform="matrix(0.1,0,0,-0.1,0,341)"/>
<path style="fill:none;stroke-width:10.4545;stroke-linecap:butt;stroke-linejoin:miter;stroke:rgb(100%,0%,0%);stroke-opacity:1;stroke-miterlimit:10;" d="M 33.28125 2748.632812 L 3378.710938 2748.632812 " transform="matrix(0.1,0,0,-0.1,0,341)"/>
<path style="fill:none;stroke-width:10.4545;stroke-linecap:butt;stroke-linejoin:miter;stroke:rgb(100%,0%,0%);stroke-opacity:1;stroke-miterlimit:10;" d="M 33.28125 2957.734375 L 3378.710938 2957.734375 " transform="matrix(0.1,0,0,-0.1,0,341)"/>
<path style="fill:none;stroke-width:10.4545;stroke-linecap:butt;stroke-linejoin:miter;stroke:rgb(100%,0%,0%);stroke-opacity:1;stroke-miterlimit:10;" d="M 33.28125 3166.835938 L 3378.710938 3166.835938 " transform="matrix(0.1,0,0,-0.1,0,341)"/>
<path style="fill:none;stroke-width:10.4545;stroke-linecap:butt;stroke-linejoin:miter;stroke:rgb(100%,0%,0%);stroke-opacity:1;stroke-miterlimit:10;" d="M 33.28125 30.46875 L 3378.710938 30.46875 L 3378.710938 3375.898438 L 33.28125 3375.898438 Z M 33.28125 30.46875 " transform="matrix(0.1,0,0,-0.1,0,341)"/>
<path style="fill:none;stroke-width:10.4545;stroke-linecap:butt;stroke-linejoin:miter;stroke:rgb(100%,0%,0%);stroke-opacity:1;stroke-miterlimit:10;" d="M 33.28125 1703.203125 L 3378.710938 1703.203125 " transform="matrix(0.1,0,0,-0.1,0,341)"/>
<path style="fill:none;stroke-width:10.4545;stroke-linecap:butt;stroke-linejoin:miter;stroke:rgb(100%,0%,0%);stroke-opacity:1;stroke-miterlimit:10;" d="M 1705.976562 3375.898438 L 1705.976562 30.46875 " transform="matrix(0.1,0,0,-0.1,0,341)"/>
</g>
</svg>
