<?xml version="1.0" encoding="UTF-8"?>
<svg xmlns="http://www.w3.org/2000/svg" xmlns:xlink="http://www.w3.org/1999/xlink" width="148" height="148" viewBox="0 0 148 148">
<defs>
<clipPath id="clip-0">
<path clip-rule="nonzero" d="M 2.144531 2.15625 L 20.144531 2.15625 L 20.144531 20.15625 L 2.144531 20.15625 Z M 2.144531 2.15625 "/>
</clipPath>
<clipPath id="clip-1">
<path clip-rule="nonzero" d="M 0 0 L 48 0 L 48 24 L 0 24 Z M 0 0 "/>
</clipPath>
<clipPath id="clip-2">
<rect x="0" y="0" width="48" height="24"/>
</clipPath>
<g id="source-5" clip-path="url(#clip-2)">
<g clip-path="url(#clip-1)">
<path fill="none" stroke-width="7" stroke-linecap="butt" stroke-linejoin="miter" stroke="rgb(0%, 0%, 0%)" stroke-opacity="1" stroke-miterlimit="10" d="M -20 30 L 60 -10 M -20 70 L 140 -10 M -20 110 L 220 -10 M -20 150 L 300 -10 M -20 190 L 380 -10 M -20 230 L 460 -10 M 20 250 L 500 10 M 100 250 L 500 50 M 180 250 L 500 90 M 260 250 L 500 130 M 340 250 L 500 170 M 420 250 L 500 210 " transform="matrix(0.1, 0, 0, 0.1, 0, 0)"/>
</g>
</g>
<pattern id="pattern-0" patternUnits="userSpaceOnUse" x="0" y="0" width="48" height="24" viewBox="0 0 48 24" patternTransform="matrix(0.999992, 0, 0, -0.999984, -1.056, 149.357)">
<use xlink:href="#source-5"/>
</pattern>
<clipPath id="clip-3">
<path clip-rule="nonzero" d="M 20.144531 2.15625 L 38.144531 2.15625 L 38.144531 20.15625 L 20.144531 20.15625 Z M 20.144531 2.15625 "/>
</clipPath>
<clipPath id="clip-4">
<path clip-rule="nonzero" d="M 0 0 L 48 0 L 48 24 L 0 24 Z M 0 0 "/>
</clipPath>
<clipPath id="clip-5">
<rect x="0" y="0" width="48" height="24"/>
</clipPath>
<g id="source-8" clip-path="url(#clip-5)">
<g clip-path="url(#clip-4)">
<path fill="none" stroke-width="7" stroke-linecap="butt" stroke-linejoin="miter" stroke="rgb(0%, 0%, 0%)" stroke-opacity="1" stroke-miterlimit="10" d="M -20 210 L 60 250 M -20 170 L 140 250 M -20 130 L 220 250 M -20 90 L 300 250 M -20 50 L 380 250 M -20 10 L 460 250 M 20 -10 L 500 230 M 100 -10 L 500 190 M 180 -10 L 500 150 M 260 -10 L 500 110 M 340 -10 L 500 70 M 420 -10 L 500 30 " transform="matrix(0.1, 0, 0, 0.1, 0, 0)"/>
</g>
</g>
<pattern id="pattern-1" patternUnits="userSpaceOnUse" x="0" y="0" width="48" height="24" viewBox="0 0 48 24" patternTransform="matrix(0.999992, 0, 0, -0.999984, -1.056, 149.357)">
<use xlink:href="#source-8"/>
</pattern>
<clipPath id="clip-6">
<path clip-rule="nonzero" d="M 20.144531 20.15625 L 38.144531 20.15625 L 38.144531 38.15625 L 20.144531 38.15625 Z M 20.144531 20.15625 "/>
</clipPath>
<clipPath id="clip-7">
<path clip-rule="nonzero" d="M 0 0 L 48 0 L 48 24 L 0 24 Z M 0 0 "/>
</clipPath>
<clipPath id="clip-8">
<rect x="0" y="0" width="48" height="24"/>
</clipPath>
<g id="source-11" clip-path="url(#clip-8)">
<g clip-path="url(#clip-7)">
<path fill="none" stroke-width="7" stroke-linecap="butt" stroke-linejoin="miter" stroke="rgb(0%, 0%, 0%)" stroke-opacity="1" stroke-miterlimit="10" d="M -20 210 L 60 250 M -20 170 L 140 250 M -20 130 L 220 250 M -20 90 L 300 250 M -20 50 L 380 250 M -20 10 L 460 250 M 20 -10 L 500 230 M 100 -10 L 500 190 M 180 -10 L 500 150 M 260 -10 L 500 110 M 340 -10 L 500 70 M 420 -10 L 500 30 " transform="matrix(0.1, 0, 0, 0.1, 0, 0)"/>
</g>
</g>
<pattern id="pattern-2" patternUnits="userSpaceOnUse" x="0" y="0" width="48" height="24" viewBox="0 0 48 24" patternTransform="matrix(0.999992, 0, 0, -0.999984, -1.056, 149.357)">
<use xlink:href="#source-11"/>
</pattern>
<clipPath id="clip-9">
<path clip-rule="nonzero" d="M 2.144531 20.15625 L 20.144531 20.15625 L 20.144531 38.15625 L 2.144531 38.15625 Z M 2.144531 20.15625 "/>
</clipPath>
<clipPath id="clip-10">
<path clip-rule="nonzero" d="M 0 0 L 48 0 L 48 24 L 0 24 Z M 0 0 "/>
</clipPath>
<clipPath id="clip-11">
<rect x="0" y="0" width="48" height="24"/>
</clipPath>
<g id="source-14" clip-path="url(#clip-11)">
<g clip-path="url(#clip-10)">
<path fill="none" stroke-width="7" stroke-linecap="butt" stroke-linejoin="miter" stroke="rgb(0%, 0%, 0%)" stroke-opacity="1" stroke-miterlimit="10" d="M -20 210 L 60 250 M -20 170 L 140 250 M -20 130 L 220 250 M -20 90 L 300 250 M -20 50 L 380 250 M -20 10 L 460 250 M 20 -10 L 500 230 M 100 -10 L 500 190 M 180 -10 L 500 150 M 260 -10 L 500 110 M 340 -10 L 500 70 M 420 -10 L 500 30 " transform="matrix(0.1, 0, 0, 0.1, 0, 0)"/>
</g>
</g>
<pattern id="pattern-3" patternUnits="userSpaceOnUse" x="0" y="0" width="48" height="24" viewBox="0 0 48 24" patternTransform="matrix(0.999992, 0, 0, -0.999984, -1.056, 149.357)">
<use xlink:href="#source-14"/>
</pattern>
<clipPath id="clip-12">
<path clip-rule="nonzero" d="M 2.144531 38.15625 L 20.144531 38.15625 L 20.144531 56.15625 L 2.144531 56.15625 Z M 2.144531 38.15625 "/>
</clipPath>
<clipPath id="clip-13">
<path clip-rule="nonzero" d="M 0 0 L 48 0 L 48 24 L 0 24 Z M 0 0 "/>
</clipPath>
<clipPath id="clip-14">
<rect x="0" y="0" width="48" height="24"/>
</clipPath>
<g id="source-17" clip-path="url(#clip-14)">
<g clip-path="url(#clip-13)">
<path fill="none" stroke-width="7" stroke-linecap="butt" stroke-linejoin="miter" stroke="rgb(0%, 0%, 0%)" stroke-opacity="1" stroke-miterlimit="10" d="M -20 30 L 60 -10 M -20 210 L 60 250 M -20 70 L 140 -10 M -20 170 L 140 250 M -20 110 L 220 -10 M -20 130 L 220 250 M -20 150 L 300 -10 M -20 90 L 300 250 M -20 190 L 380 -10 M -20 50 L 380 250 M -20 230 L 460 -10 M -20 10 L 460 250 M 20 250 L 500 10 M 20 -10 L 500 230 M 100 250 L 500 50 M 100 -10 L 500 190 M 180 250 L 500 90 M 180 -10 L 500 150 M 260 250 L 500 130 M 260 -10 L 500 110 M 340 250 L 500 170 M 340 -10 L 500 70 M 420 250 L 500 210 M 420 -10 L 500 30 " transform="matrix(0.1, 0, 0, 0.1, 0, 0)"/>
</g>
</g>
<pattern id="pattern-4" patternUnits="userSpaceOnUse" x="0" y="0" width="48" height="24" viewBox="0 0 48 24" patternTransform="matrix(0.999992, 0, 0, -0.999984, -1.056, 149.357)">
<use xlink:href="#source-17"/>
</pattern>
</defs>
<path fill-rule="nonzero" fill="rgb(100%, 100%, 100%)" fill-opacity="1" d="M 2.144531 20.15625 L 20.144531 20.15625 L 20.144531 2.15625 L 2.144531 2.15625 Z M 2.144531 20.15625 "/>
<g clip-path="url(#clip-0)">
<path fill-rule="nonzero" fill="url(#pattern-0)" d="M 2.144531 20.15625 L 20.144531 20.15625 L 20.144531 2.15625 L 2.144531 2.15625 Z M 2.144531 20.15625 "/>
</g>
<path fill="none" stroke-width="4.5" stroke-linecap="butt" stroke-linejoin="miter" stroke="rgb(0%, 0%, 0%)" stroke-opacity="1" stroke-miterlimit="10" d="M 32.005312 1292.0075 L 212.005312 1292.0075 L 212.005312 1472.0075 L 32.005312 1472.0075 Z M 32.005312 1292.0075 " transform="matrix(0.1, 0, 0, -0.1, -1.056, 149.357)"/>
<path fill-rule="nonzero" fill="rgb(100%, 100%, 100%)" fill-opacity="1" d="M 20.144531 20.15625 L 38.144531 20.15625 L 38.144531 2.15625 L 20.144531 2.15625 Z M 20.144531 20.15625 "/>
<g clip-path="url(#clip-3)">
<path fill-rule="nonzero" fill="url(#pattern-1)" d="M 20.144531 20.15625 L 38.144531 20.15625 L 38.144531 2.15625 L 20.144531 2.15625 Z M 20.144531 20.15625 "/>
</g>
<path fill="none" stroke-width="4.5" stroke-linecap="butt" stroke-linejoin="miter" stroke="rgb(0%, 0%, 0%)" stroke-opacity="1" stroke-miterlimit="10" d="M 212.005312 1292.0075 L 392.005312 1292.0075 L 392.005312 1472.0075 L 212.005312 1472.0075 Z M 212.005312 1292.0075 " transform="matrix(0.1, 0, 0, -0.1, -1.056, 149.357)"/>
<path fill-rule="nonzero" fill="rgb(100%, 100%, 100%)" fill-opacity="1" d="M 20.144531 38.15625 L 38.144531 38.15625 L 38.144531 20.15625 L 20.144531 20.15625 Z M 20.144531 38.15625 "/>
<g clip-path="url(#clip-6)">
<path fill-rule="nonzero" fill="url(#pattern-2)" d="M 20.144531 38.15625 L 38.144531 38.15625 L 38.144531 20.15625 L 20.144531 20.15625 Z M 20.144531 38.15625 "/>
</g>
<path fill="none" stroke-width="4.5" stroke-linecap="butt" stroke-linejoin="miter" stroke="rgb(0%, 0%, 0%)" stroke-opacity="1" stroke-miterlimit="10" d="M 212.005312 1112.0075 L 392.005312 1112.0075 L 392.005312 1292.0075 L 212.005312 1292.0075 Z M 212.005312 1112.0075 " transform="matrix(0.1, 0, 0, -0.1, -1.056, 149.357)"/>
<path fill-rule="nonzero" fill="rgb(100%, 100%, 100%)" fill-opacity="1" d="M 2.144531 38.15625 L 20.144531 38.15625 L 20.144531 20.15625 L 2.144531 20.15625 Z M 2.144531 38.15625 "/>
<g clip-path="url(#clip-9)">
<path fill-rule="nonzero" fill="url(#pattern-3)" d="M 2.144531 38.15625 L 20.144531 38.15625 L 20.144531 20.15625 L 2.144531 20.15625 Z M 2.144531 38.15625 "/>
</g>
<path fill="none" stroke-width="4.5" stroke-linecap="butt" stroke-linejoin="miter" stroke="rgb(0%, 0%, 0%)" stroke-opacity="1" stroke-miterlimit="10" d="M 32.005312 1112.0075 L 212.005312 1112.0075 L 212.005312 1292.0075 L 32.005312 1292.0075 Z M 32.005312 1112.0075 " transform="matrix(0.1, 0, 0, -0.1, -1.056, 149.357)"/>
<path fill-rule="nonzero" fill="rgb(100%, 100%, 100%)" fill-opacity="1" d="M 2.144531 56.15625 L 20.144531 56.15625 L 20.144531 38.15625 L 2.144531 38.15625 Z M 2.144531 56.15625 "/>
<g clip-path="url(#clip-12)">
<path fill-rule="nonzero" fill="url(#pattern-4)" d="M 2.144531 56.15625 L 20.144531 56.15625 L 20.144531 38.15625 L 2.144531 38.15625 Z M 2.144531 56.15625 "/>
</g>
<path fill="none" stroke-width="4.5" stroke-linecap="butt" stroke-linejoin="miter" stroke="rgb(0%, 0%, 0%)" stroke-opacity="1" stroke-miterlimit="10" d="M 32.005312 932.0075 L 212.005312 932.0075 L 212.005312 1112.0075 L 32.005312 1112.0075 Z M 32.005312 932.0075 " transform="matrix(0.1, 0, 0, -0.1, -1.056, 149.357)"/>
<path fill="none" stroke-width="36" stroke-linecap="butt" stroke-linejoin="miter" stroke="rgb(0%, 82.03125%, 0%)" stroke-opacity="1" stroke-miterlimit="10" d="M 752.005312 1472.0075 L 752.005312 32.0075 " transform="matrix(0.1, 0, 0, -0.1, -1.056, 149.357)"/>
<path fill="none" stroke-width="36" stroke-linecap="butt" stroke-linejoin="miter" stroke="rgb(0%, 82.03125%, 0%)" stroke-opacity="1" stroke-miterlimit="10" d="M 392.005312 1472.0075 L 392.005312 752.0075 " transform="matrix(0.1, 0, 0, -0.1, -1.056, 149.357)"/>
<path fill="none" stroke-width="36" stroke-linecap="butt" stroke-linejoin="miter" stroke="rgb(0%, 82.03125%, 0%)" stroke-opacity="1" stroke-miterlimit="10" d="M 32.005312 1112.0075 L 752.005312 1112.0075 " transform="matrix(0.1, 0, 0, -0.1, -1.056, 149.357)"/>
<path fill="none" stroke-width="36" stroke-linecap="butt" stroke-linejoin="miter" stroke="rgb(0%, 82.03125%, 0%)" stroke-opacity="1" stroke-miterlimit="10" d="M 212.005312 1472.0075 L 212.005312 1112.0075 " transform="matrix(0.1, 0, 0, -0.1, -1.056, 149.357)"/>
<path fill="none" stroke-width="36" stroke-linecap="butt" stroke-linejoin="miter" stroke="rgb(0%, 82.03125%, 0%)" stroke-opacity="1" stroke-miterlimit="10" d="M 32.005312 1292.0075 L 392.005312 1292.0075 " transform="matrix(0.1, 0, 0, -0.1, -1.056, 149.357)"/>
<path fill="none" stroke-width="36" stroke-linecap="butt" stroke-linejoin="miter" stroke="rgb(0%, 82.03125%, 0%)" stroke-opacity="1" stroke-miterlimit="10" d="M 32.005312 32.0075 L 1472.005312 32.0075 L 1472.005312 1472.0075 L 32.005312 1472.0075 Z M 32.005312 32.0075 " transform="matrix(0.1, 0, 0, -0.1, -1.056, 149.357)"/>
<path fill="none" stroke-width="36" stroke-linecap="butt" stroke-linejoin="miter" stroke="rgb(0%, 82.03125%, 0%)" stroke-opacity="1" stroke-miterlimit="10" d="M 32.005312 752.0075 L 1472.005312 752.0075 " transform="matrix(0.1, 0, 0, -0.1, -1.056, 149.357)"/>
<path fill="none" stroke-width="18" stroke-linecap="butt" stroke-linejoin="miter" stroke="rgb(0%, 0%, 100%)" stroke-opacity="1" stroke-miterlimit="10" d="M 32.005312 1292.0075 L 1472.005312 1292.0075 " transform="matrix(0.1, 0, 0, -0.1, -1.056, 149.357)"/>
<path fill="none" stroke-width="18" stroke-linecap="butt" stroke-linejoin="miter" stroke="rgb(0%, 0%, 100%)" stroke-opacity="1" stroke-miterlimit="10" d="M 32.005312 1112.0075 L 1472.005312 1112.0075 " transform="matrix(0.1, 0, 0, -0.1, -1.056, 149.357)"/>
<path fill="none" stroke-width="18" stroke-linecap="butt" stroke-linejoin="miter" stroke="rgb(0%, 0%, 100%)" stroke-opacity="1" stroke-miterlimit="10" d="M 32.005312 932.0075 L 1472.005312 932.0075 " transform="matrix(0.1, 0, 0, -0.1, -1.056, 149.357)"/>
<path fill="none" stroke-width="18" stroke-linecap="butt" stroke-linejoin="miter" stroke="rgb(0%, 0%, 100%)" stroke-opacity="1" stroke-miterlimit="10" d="M 32.005312 752.0075 L 1472.005312 752.0075 " transform="matrix(0.1, 0, 0, -0.1, -1.056, 149.357)"/>
<path fill="none" stroke-width="18" stroke-linecap="butt" stroke-linejoin="miter" stroke="rgb(0%, 0%, 100%)" stroke-opacity="1" stroke-miterlimit="10" d="M 32.005312 572.0075 L 1472.005312 572.0075 " transform="matrix(0.1, 0, 0, -0.1, -1.056, 149.357)"/>
<path fill="none" stroke-width="18" stroke-linecap="butt" stroke-linejoin="miter" stroke="rgb(0%, 0%, 100%)" stroke-opacity="1" stroke-miterlimit="10" d="M 32.005312 392.0075 L 1472.005312 392.0075 " transform="matrix(0.1, 0, 0, -0.1, -1.056, 149.357)"/>
<path fill="none" stroke-width="18" stroke-linecap="butt" stroke-linejoin="miter" stroke="rgb(0%, 0%, 100%)" stroke-opacity="1" stroke-miterlimit="10" d="M 32.005312 212.0075 L 1472.005312 212.0075 " transform="matrix(0.1, 0, 0, -0.1, -1.056, 149.357)"/>
<path fill="none" stroke-width="18" stroke-linecap="butt" stroke-linejoin="miter" stroke="rgb(0%, 0%, 100%)" stroke-opacity="1" stroke-miterlimit="10" d="M 212.005312 1472.0075 L 212.005312 32.0075 " transform="matrix(0.1, 0, 0, -0.1, -1.056, 149.357)"/>
<path fill="none" stroke-width="18" stroke-linecap="butt" stroke-linejoin="miter" stroke="rgb(0%, 0%, 100%)" stroke-opacity="1" stroke-miterlimit="10" d="M 392.005312 1472.0075 L 392.005312 32.0075 " transform="matrix(0.1, 0, 0, -0.1, -1.056, 149.357)"/>
<path fill="none" stroke-width="18" stroke-linecap="butt" stroke-linejoin="miter" stroke="rgb(0%, 0%, 100%)" stroke-opacity="1" stroke-miterlimit="10" d="M 572.005312 1472.0075 L 572.005312 32.0075 " transform="matrix(0.1, 0, 0, -0.1, -1.056, 149.357)"/>
<path fill="none" stroke-width="18" stroke-linecap="butt" stroke-linejoin="miter" stroke="rgb(0%, 0%, 100%)" stroke-opacity="1" stroke-miterlimit="10" d="M 752.005312 1472.0075 L 752.005312 32.0075 " transform="matrix(0.1, 0, 0, -0.1, -1.056, 149.357)"/>
<path fill="none" stroke-width="18" stroke-linecap="butt" stroke-linejoin="miter" stroke="rgb(0%, 0%, 100%)" stroke-opacity="1" stroke-miterlimit="10" d="M 932.005312 1472.0075 L 932.005312 32.0075 " transform="matrix(0.1, 0, 0, -0.1, -1.056, 149.357)"/>
<path fill="none" stroke-width="18" stroke-linecap="butt" stroke-linejoin="miter" stroke="rgb(0%, 0%, 100%)" stroke-opacity="1" stroke-miterlimit="10" d="M 1112.005312 1472.0075 L 1112.005312 32.0075 " transform="matrix(0.1, 0, 0, -0.1, -1.056, 149.357)"/>
<path fill="none" stroke-width="18" stroke-linecap="butt" stroke-linejoin="miter" stroke="rgb(0%, 0%, 100%)" stroke-opacity="1" stroke-miterlimit="10" d="M 1292.005312 1472.0075 L 1292.005312 32.0075 " transform="matrix(0.1, 0, 0, -0.1, -1.056, 149.357)"/>
<path fill="none" stroke-width="18" stroke-linecap="butt" stroke-linejoin="miter" stroke="rgb(0%, 0%, 100%)" stroke-opacity="1" stroke-miterlimit="10" d="M 32.005312 32.0075 L 1472.005312 32.0075 L 1472.005312 1472.0075 L 32.005312 1472.0075 Z M 32.005312 32.0075 " transform="matrix(0.1, 0, 0, -0.1, -1.056, 149.357)"/>
<path fill="none" stroke-width="4.5" stroke-linecap="butt" stroke-linejoin="miter" stroke="rgb(100%, 0%, 0%)" stroke-opacity="1" stroke-miterlimit="10" d="M 32.005312 32.0075 L 1472.005312 32.0075 L 1472.005312 1472.0075 L 32.005312 1472.0075 Z M 32.005312 32.0075 " transform="matrix(0.1, 0, 0, -0.1, -1.056, 149.357)"/>
<path fill="none" stroke-width="4.5" stroke-linecap="butt" stroke-linejoin="miter" stroke="rgb(100%, 0%, 0%)" stroke-opacity="1" stroke-miterlimit="10" d="M 32.005312 752.0075 L 1472.005312 752.0075 " transform="matrix(0.1, 0, 0, -0.1, -1.056, 149.357)"/>
<path fill="none" stroke-width="4.5" stroke-linecap="butt" stroke-linejoin="miter" stroke="rgb(100%, 0%, 0%)" stroke-opacity="1" stroke-miterlimit="10" d="M 752.005312 1472.0075 L 752.005312 32.0075 " transform="matrix(0.1, 0, 0, -0.1, -1.056, 149.357)"/>
<path fill="none" stroke-width="4.5" stroke-linecap="butt" stroke-linejoin="miter" stroke="rgb(100%, 0%, 0%)" stroke-opacity="1" stroke-miterlimit="10" d="M 122.005312 1472.0075 L 122.005312 32.0075 " transform="matrix(0.1, 0, 0, -0.1, -1.056, 149.357)"/>
<path fill="none" stroke-width="4.5" stroke-linecap="butt" stroke-linejoin="miter" stroke="rgb(100%, 0%, 0%)" stroke-opacity="1" stroke-miterlimit="10" d="M 302.005312 1472.0075 L 302.005312 32.0075 " transform="matrix(0.1, 0, 0, -0.1, -1.056, 149.357)"/>
<path fill="none" stroke-width="4.5" stroke-linecap="butt" stroke-linejoin="miter" stroke="rgb(100%, 0%, 0%)" stroke-opacity="1" stroke-miterlimit="10" d="M 482.005312 1472.0075 L 482.005312 32.0075 " transform="matrix(0.1, 0, 0, -0.1, -1.056, 149.357)"/>
<path fill="none" stroke-width="4.5" stroke-linecap="butt" stroke-linejoin="miter" stroke="rgb(100%, 0%, 0%)" stroke-opacity="1" stroke-miterlimit="10" d="M 572.005312 1472.0075 L 572.005312 32.0075 " transform="matrix(0.1, 0, 0, -0.1, -1.056, 149.357)"/>
<path fill="none" stroke-width="4.5" stroke-linecap="butt" stroke-linejoin="miter" stroke="rgb(100%, 0%, 0%)" stroke-opacity="1" stroke-miterlimit="10" d="M 662.005312 1472.0075 L 662.005312 32.0075 " transform="matrix(0.1, 0, 0, -0.1, -1.056, 149.357)"/>
<path fill="none" stroke-width="4.5" stroke-linecap="butt" stroke-linejoin="miter" stroke="rgb(100%, 0%, 0%)" stroke-opacity="1" stroke-miterlimit="10" d="M 842.005312 1472.0075 L 842.005312 32.0075 " transform="matrix(0.1, 0, 0, -0.1, -1.056, 149.357)"/>
<path fill="none" stroke-width="4.5" stroke-linecap="butt" stroke-linejoin="miter" stroke="rgb(100%, 0%, 0%)" stroke-opacity="1" stroke-miterlimit="10" d="M 932.005312 1472.0075 L 932.005312 32.0075 " transform="matrix(0.1, 0, 0, -0.1, -1.056, 149.357)"/>
<path fill="none" stroke-width="4.5" stroke-linecap="butt" stroke-linejoin="miter" stroke="rgb(100%, 0%, 0%)" stroke-opacity="1" stroke-miterlimit="10" d="M 1022.005312 1472.0075 L 1022.005312 32.0075 " transform="matrix(0.1, 0, 0, -0.1, -1.056, 149.357)"/>
<path fill="none" stroke-width="4.5" stroke-linecap="butt" stroke-linejoin="miter" stroke="rgb(100%, 0%, 0%)" stroke-opacity="1" stroke-miterlimit="10" d="M 1112.005312 1472.0075 L 1112.005312 32.0075 " transform="matrix(0.1, 0, 0, -0.1, -1.056, 149.357)"/>
<path fill="none" stroke-width="4.5" stroke-linecap="butt" stroke-linejoin="miter" stroke="rgb(100%, 0%, 0%)" stroke-opacity="1" stroke-miterlimit="10" d="M 1202.005312 1472.0075 L 1202.005312 32.0075 " transform="matrix(0.1, 0, 0, -0.1, -1.056, 149.357)"/>
<path fill="none" stroke-width="4.5" stroke-linecap="butt" stroke-linejoin="miter" stroke="rgb(100%, 0%, 0%)" stroke-opacity="1" stroke-miterlimit="10" d="M 1292.005312 1472.0075 L 1292.005312 32.0075 " transform="matrix(0.1, 0, 0, -0.1, -1.056, 149.357)"/>
<path fill="none" stroke-width="4.5" stroke-linecap="butt" stroke-linejoin="miter" stroke="rgb(100%, 0%, 0%)" stroke-opacity="1" stroke-miterlimit="10" d="M 1382.005312 1472.0075 L 1382.005312 32.0075 " transform="matrix(0.1, 0, 0, -0.1, -1.056, 149.357)"/>
<path fill="none" stroke-width="4.5" stroke-linecap="butt" stroke-linejoin="miter" stroke="rgb(100%, 0%, 0%)" stroke-opacity="1" stroke-miterlimit="10" d="M 32.005312 122.0075 L 1472.005312 122.0075 " transform="matrix(0.1, 0, 0, -0.1, -1.056, 149.357)"/>
<path fill="none" stroke-width="4.5" stroke-linecap="butt" stroke-linejoin="miter" stroke="rgb(100%, 0%, 0%)" stroke-opacity="1" stroke-miterlimit="10" d="M 32.005312 212.0075 L 1472.005312 212.0075 " transform="matrix(0.1, 0, 0, -0.1, -1.056, 149.357)"/>
<path fill="none" stroke-width="4.5" stroke-linecap="butt" stroke-linejoin="miter" stroke="rgb(100%, 0%, 0%)" stroke-opacity="1" stroke-miterlimit="10" d="M 32.005312 302.0075 L 1472.005312 302.0075 " transform="matrix(0.1, 0, 0, -0.1, -1.056, 149.357)"/>
<path fill="none" stroke-width="4.5" stroke-linecap="butt" stroke-linejoin="miter" stroke="rgb(100%, 0%, 0%)" stroke-opacity="1" stroke-miterlimit="10" d="M 32.005312 392.0075 L 1472.005312 392.0075 " transform="matrix(0.1, 0, 0, -0.1, -1.056, 149.357)"/>
<path fill="none" stroke-width="4.5" stroke-linecap="butt" stroke-linejoin="miter" stroke="rgb(100%, 0%, 0%)" stroke-opacity="1" stroke-miterlimit="10" d="M 32.005312 482.0075 L 1472.005312 482.0075 " transform="matrix(0.1, 0, 0, -0.1, -1.056, 149.357)"/>
<path fill="none" stroke-width="4.5" stroke-linecap="butt" stroke-linejoin="miter" stroke="rgb(100%, 0%, 0%)" stroke-opacity="1" stroke-miterlimit="10" d="M 32.005312 572.0075 L 1472.005312 572.0075 " transform="matrix(0.1, 0, 0, -0.1, -1.056, 149.357)"/>
<path fill="none" stroke-width="4.5" stroke-linecap="butt" stroke-linejoin="miter" stroke="rgb(100%, 0%, 0%)" stroke-opacity="1" stroke-miterlimit="10" d="M 32.005312 842.0075 L 1472.005312 842.0075 " transform="matrix(0.1, 0, 0, -0.1, -1.056, 149.357)"/>
<path fill="none" stroke-width="4.5" stroke-linecap="butt" stroke-linejoin="miter" stroke="rgb(100%, 0%, 0%)" stroke-opacity="1" stroke-miterlimit="10" d="M 32.005312 932.0075 L 1472.005312 932.0075 " transform="matrix(0.1, 0, 0, -0.1, -1.056, 149.357)"/>
<path fill="none" stroke-width="4.5" stroke-linecap="butt" stroke-linejoin="miter" stroke="rgb(100%, 0%, 0%)" stroke-opacity="1" stroke-miterlimit="10" d="M 32.005312 1022.0075 L 1472.005312 1022.0075 " transform="matrix(0.1, 0, 0, -0.1, -1.056, 149.357)"/>
<path fill="none" stroke-width="4.5" stroke-linecap="butt" stroke-linejoin="miter" stroke="rgb(100%, 0%, 0%)" stroke-opacity="1" stroke-miterlimit="10" d="M 32.005312 1202.0075 L 1472.005312 1202.0075 " transform="matrix(0.1, 0, 0, -0.1, -1.056, 149.357)"/>
<path fill="none" stroke-width="4.5" stroke-linecap="butt" stroke-linejoin="miter" stroke="rgb(100%, 0%, 0%)" stroke-opacity="1" stroke-miterlimit="10" d="M 32.005312 1382.0075 L 1472.005312 1382.0075 " transform="matrix(0.1, 0, 0, -0.1, -1.056, 149.357)"/>
<path fill="none" stroke-width="4.5" stroke-linecap="butt" stroke-linejoin="miter" stroke="rgb(100%, 0%, 0%)" stroke-opacity="1" stroke-miterlimit="10" d="M 32.005312 662.0075 L 1472.005312 662.0075 " transform="matrix(0.1, 0, 0, -0.1, -1.056, 149.357)"/>
<path fill="none" stroke-width="4.5" stroke-linecap="butt" stroke-linejoin="miter" stroke="rgb(100%, 0%, 0%)" stroke-opacity="1" stroke-miterlimit="10" d="M 212.005312 1472.0075 L 212.005312 32.0075 " transform="matrix(0.1, 0, 0, -0.1, -1.056, 149.357)"/>
<path fill="none" stroke-width="4.5" stroke-linecap="butt" stroke-linejoin="miter" stroke="rgb(100%, 0%, 0%)" stroke-opacity="1" stroke-miterlimit="10" d="M 392.005312 1472.0075 L 392.005312 32.0075 " transform="matrix(0.1, 0, 0, -0.1, -1.056, 149.357)"/>
<path fill="none" stroke-width="4.5" stroke-linecap="butt" stroke-linejoin="miter" stroke="rgb(100%, 0%, 0%)" stroke-opacity="1" stroke-miterlimit="10" d="M 32.005312 1292.0075 L 1472.005312 1292.0075 " transform="matrix(0.1, 0, 0, -0.1, -1.056, 149.357)"/>
<path fill="none" stroke-width="4.5" stroke-linecap="butt" stroke-linejoin="miter" stroke="rgb(100%, 0%, 0%)" stroke-opacity="1" stroke-miterlimit="10" d="M 32.005312 1112.0075 L 1472.005312 1112.0075 " transform="matrix(0.1, 0, 0, -0.1, -1.056, 149.357)"/>
</svg>
